<svg version="2.0" xmlns="http://www.w3.org/2000/svg"
    width="2048" height="2048" viewBox="0 0 2048 2048"
    preserveAspectRatio="xMidYMid meet">

    <g transform="scale(0.2, 0.2)" fill="#000000" stroke="none">
        <path d="M1993 3075 c-12 -8 -26 -30 -32 -48 -9 -28 -81 -402 -81 -420 0 -4
        306 -7 680 -7 374 0 680 3 680 7 0 18 -72 392 -81 420 -21 65 2 63 -599 63
        -469 0 -549 -2 -567 -15z m527 -230 l0 -175 -280 0 -280 0 5 23 c2 12 16 85
        30 162 15 77 28 146 30 153 3 9 62 12 250 12 l245 0 0 -175z m574 158 c9 -30
        56 -295 56 -315 0 -17 -13 -18 -277 -16 l-278 3 -3 173 -2 172 249 0 c229 0
        250 -1 255 -17z"/>
        <path d="M1782 2660 c-45 -18 -62 -106 -29 -149 21 -25 58 -33 83 -16 29 19
        31 19 31 -2 -1 -10 0 -102 1 -205 l2 -188 690 0 690 0 0 200 0 201 34 -6 c46
        -9 71 0 84 31 28 61 -3 134 -58 134 -31 0 -45 -13 -55 -53 l-7 -27 -688 0
        -688 0 -12 35 c-6 19 -20 40 -30 45 -21 11 -18 12 -48 0z m331 -318 c33 -36
        39 -69 21 -107 -35 -75 -141 -78 -179 -5 -20 38 -19 58 5 97 33 55 108 62 153
        15z m1002 24 c42 -18 69 -66 61 -111 -11 -58 -74 -94 -132 -75 -83 28 -90 145
        -10 184 38 19 39 19 81 2z"/>
        <path d="M1836 2058 c-36 -51 -7 -118 51 -120 41 -1 46 -17 38 -105 -8 -85 12
        -129 68 -157 48 -23 96 -15 140 24 32 28 32 30 35 134 l4 105 388 1 388 1 4
        -105 c3 -94 5 -107 27 -130 55 -59 149 -55 193 7 19 26 23 48 26 129 l4 98 33
        0 c58 0 86 66 49 118 l-15 22 -709 0 -709 0 -15 -22z"/>
    </g>
</svg>
